<svg xmlns="http://www.w3.org/2000/svg" width="58" height="24" viewBox="0 0 58 24" fill="none">
    <g clip-path="url(#clip0_256_14)">
        <path
            d="M13.8129 0.16153L13.2662 3.54599H10.7787L11.3261 0.16153H8.31316L6.73631 9.91721H9.74923L10.3007 6.50396H12.7882L12.2361 9.91721H15.2489L16.8258 0.16153H13.8129Z"
            fill="currentColor"></path>
        <path
            d="M18.8957 10.6075H16.3265L16.3271 10.6006H13.3149L13.3136 10.6075H10.6275L10.1592 13.5655H12.8356L11.7381 20.3564H14.7503L15.8478 13.5655H18.4281L18.8957 10.6075Z"
            fill="currentColor"></path>
        <path d="M36.4224 20.3564H33.4096L34.9864 10.6006H37.9993L36.4224 20.3564Z" fill="currentColor"></path>
        <path
            d="M34.5104 10.6075H31.9405L31.9419 10.6006H28.9289L28.9276 10.6075H26.2415L25.7739 13.5655H28.4496L27.3521 20.3564H30.365L31.4625 13.5655H34.0427L34.5104 10.6075Z"
            fill="currentColor"></path>
        <path d="M29.7435 6.9689L30.8437 0.16153H27.8315L26.2546 9.91721H28.9722H33.1898L33.6664 6.9689H29.7435Z"
            fill="currentColor"></path>
        <path
            d="M25.7017 1.43892C24.0239 -0.502617 20.8002 -0.466905 18.5029 1.51858C16.2049 3.50475 15.7029 6.68867 17.3807 8.6302C19.0585 10.5717 22.2816 10.536 24.5795 8.54985C26.8775 6.56437 27.3796 3.38045 25.7017 1.43892ZM22.7829 6.47096C21.8441 7.28274 20.5268 7.29716 19.8408 6.50393C19.1547 5.71069 19.36 4.40924 20.2995 3.59747C21.2383 2.78569 22.5556 2.77127 23.2417 3.5645C23.9271 4.35843 23.7218 5.65988 22.7829 6.47096Z"
            fill="currentColor"></path>
        <path
            d="M46.9446 11.8828C45.2668 9.9413 42.0437 9.97695 39.7457 11.9632C37.4478 13.9493 36.9458 17.1332 38.6235 19.0748C40.3014 21.0164 43.5244 20.9806 45.8224 18.9945C48.1197 17.0082 48.6224 13.8243 46.9446 11.8828ZM44.025 16.9149C43.0862 17.7266 41.769 17.7411 41.0829 16.9478C40.3968 16.1546 40.6022 14.8531 41.5417 14.0414C42.4805 13.2296 43.7978 13.2152 44.4839 14.0084C45.17 14.8023 44.9646 16.1031 44.025 16.9149Z"
            fill="currentColor"></path>
        <path
            d="M39.6448 0.16153H38.1662H35.1533L33.5764 9.91721H36.2597H38.1655C40.3405 9.91721 43.2785 7.78893 43.6631 5.03493C44.0484 2.27956 42.3081 0.16153 39.6448 0.16153ZM40.6351 5.22173C40.2986 6.55821 39.1002 6.92976 38.5618 6.92976H37.0728L37.6902 3.1092H39.0782C40.0391 3.10988 40.9717 3.88526 40.6351 5.22173Z"
            fill="currentColor"></path>
        <path
            d="M10.0246 11.6349L9.55 15.1217C9.55 15.1217 9.13656 14.38 8.87696 14.1588C8.61735 13.9377 7.84816 13.4184 7.07896 13.4425C6.30977 13.4665 6.17035 13.6973 6.71359 13.9665C7.25684 14.2358 8.57409 14.553 9.19425 15.5145C9.8144 16.476 9.83849 19.2115 7.14627 20.2114C4.45408 21.2114 2.86419 19.5706 2.56956 19.1985L3.108 15.7789C3.108 15.7789 3.67184 16.8016 4.47949 17.2246C5.28715 17.6476 6.29329 17.5515 6.55014 17.4107C6.80631 17.2699 5.52478 16.9362 4.77481 16.4815C4.02484 16.0262 2.99261 15.2989 3.56951 12.9432C4.1471 10.5868 8.25886 9.44268 10.0246 11.6349Z"
            fill="currentColor"></path>
        <path
            d="M54.706 10.6006L54.0377 14.7364L52.0172 10.6006H49.0049L47.4281 20.3564H50.4404L51.1236 16.1306L53.1291 20.3564H53.1696H56.142L57.7188 10.6006H54.706Z"
            fill="currentColor"></path>
        <path
            d="M15.2702 21.552C-0.108168 22.0135 0.00515086 23.7442 0.00515086 23.7442C1.57925 23.6907 6.12231 23.7772 12.3768 23.8637C19.5784 23.9633 29.0505 24.0635 38.8764 23.9488C57.2786 23.7346 56.1688 21.9428 56.1688 21.9428C48.1163 21.782 26.519 21.3789 26.519 21.3789C23.533 13.9946 24.9827 10.602 24.9827 10.602C18.518 10.602 15.2702 21.552 15.2702 21.552Z"
            fill="url(#paint0_radial_256_14)"></path>
    </g>
    <defs>
        <radialGradient id="paint0_radial_256_14" cx="0" cy="0" r="1" gradientUnits="userSpaceOnUse"
            gradientTransform="translate(56.5351 22.1729) rotate(-178.206) scale(53.33 172.173)">
            <stop stop-color="#FFBC95"></stop>
            <stop offset="0.4679" stop-color="#FF7A78"></stop>
            <stop offset="1" stop-color="#664EFF"></stop>
        </radialGradient>
        <clipPath id="clip0_256_14">
            <rect width="57.7224" height="24" fill="currentColor"></rect>
        </clipPath>
    </defs>
</svg>